<mxfile host="app.diagrams.net" agent="Mozilla/5.0 (Windows NT 10.0; Win64; x64) AppleWebKit/537.36 (KHTML, like Gecko) Chrome/130.0.0.0 Safari/537.36" version="25.0.3">
  <diagram name="Trang-1" id="_li6FLXtPa4dHnsSss5G">
    <mxGraphModel grid="0" page="0" gridSize="10" guides="1" tooltips="1" connect="1" arrows="1" fold="1" pageScale="1" pageWidth="827" pageHeight="1169" math="0" shadow="0">
      <root>
        <mxCell id="0" />
        <mxCell id="1" parent="0" />
        <mxCell id="Y75dV5xkJvA3dV23pmSt-25" value="" style="rounded=1;whiteSpace=wrap;html=1;" vertex="1" parent="1">
          <mxGeometry x="295.5" y="494" width="130.5" height="60" as="geometry" />
        </mxCell>
        <mxCell id="JjIkbG9La5BVf3LTWZLL-2" value="" style="rounded=1;whiteSpace=wrap;html=1;" vertex="1" parent="1">
          <mxGeometry x="298" y="181" width="120" height="60" as="geometry" />
        </mxCell>
        <mxCell id="JjIkbG9La5BVf3LTWZLL-3" value="start" style="text;html=1;align=center;verticalAlign=middle;whiteSpace=wrap;rounded=0;" vertex="1" parent="1">
          <mxGeometry x="300.5" y="185.5" width="115" height="51" as="geometry" />
        </mxCell>
        <mxCell id="JjIkbG9La5BVf3LTWZLL-4" value="" style="endArrow=classic;html=1;rounded=0;exitX=0.5;exitY=1;exitDx=0;exitDy=0;" edge="1" parent="1" source="JjIkbG9La5BVf3LTWZLL-2">
          <mxGeometry width="50" height="50" relative="1" as="geometry">
            <mxPoint x="333" y="320" as="sourcePoint" />
            <mxPoint x="358" y="319" as="targetPoint" />
          </mxGeometry>
        </mxCell>
        <mxCell id="JjIkbG9La5BVf3LTWZLL-8" value="" style="edgeStyle=orthogonalEdgeStyle;rounded=0;orthogonalLoop=1;jettySize=auto;html=1;" edge="1" parent="1" source="JjIkbG9La5BVf3LTWZLL-5">
          <mxGeometry relative="1" as="geometry">
            <mxPoint x="426" y="523" as="targetPoint" />
            <Array as="points">
              <mxPoint x="521" y="346" />
            </Array>
          </mxGeometry>
        </mxCell>
        <mxCell id="JjIkbG9La5BVf3LTWZLL-10" value="" style="edgeStyle=orthogonalEdgeStyle;rounded=0;orthogonalLoop=1;jettySize=auto;html=1;" edge="1" parent="1" source="JjIkbG9La5BVf3LTWZLL-5" target="JjIkbG9La5BVf3LTWZLL-9">
          <mxGeometry relative="1" as="geometry" />
        </mxCell>
        <mxCell id="JjIkbG9La5BVf3LTWZLL-5" value="" style="rounded=0;whiteSpace=wrap;html=1;" vertex="1" parent="1">
          <mxGeometry x="298" y="316" width="120" height="60" as="geometry" />
        </mxCell>
        <mxCell id="JjIkbG9La5BVf3LTWZLL-6" value="Khai báo biến a" style="text;html=1;align=center;verticalAlign=middle;whiteSpace=wrap;rounded=0;" vertex="1" parent="1">
          <mxGeometry x="298" y="319" width="119" height="60" as="geometry" />
        </mxCell>
        <mxCell id="JjIkbG9La5BVf3LTWZLL-9" value="" style="rounded=1;whiteSpace=wrap;html=1;" vertex="1" parent="1">
          <mxGeometry x="298" y="421" width="120" height="60" as="geometry" />
        </mxCell>
        <mxCell id="JjIkbG9La5BVf3LTWZLL-11" value="Hiện lên số lẻ" style="text;html=1;align=center;verticalAlign=middle;whiteSpace=wrap;rounded=0;" vertex="1" parent="1">
          <mxGeometry x="316" y="426.5" width="84" height="49" as="geometry" />
        </mxCell>
        <mxCell id="JjIkbG9La5BVf3LTWZLL-13" value="hiện lên là số chẵn" style="text;html=1;align=center;verticalAlign=middle;whiteSpace=wrap;rounded=0;" vertex="1" parent="1">
          <mxGeometry x="333" y="509" width="60" height="30" as="geometry" />
        </mxCell>
        <mxCell id="JjIkbG9La5BVf3LTWZLL-14" value="nếu a chia 2 lấy dư 0" style="text;html=1;align=center;verticalAlign=middle;whiteSpace=wrap;rounded=0;rotation=90;" vertex="1" parent="1">
          <mxGeometry x="473" y="415" width="125" height="30" as="geometry" />
        </mxCell>
      </root>
    </mxGraphModel>
  </diagram>
</mxfile>
